<svg xmlns="http://www.w3.org/2000/svg" xmlns:xlink="http://www.w3.org/1999/xlink" width="70.967" height="70.967" viewBox="0 0 70.967 70.967">
  <defs>
    <clipPath id="clip-path">
      <rect id="Rectangle_20" data-name="Rectangle 20" width="35.357" height="39.973" rx="17.678" fill="#74dab3"/>
    </clipPath>
    <clipPath id="clip-path-2">
      <path id="Path_486" data-name="Path 486" d="M3246.161,2542.872l5.922-12.73a7.155,7.155,0,0,1-.37-3.642c.419-1.562.735-8.992,1.179-9.993s1.931-1.32,2.252-.073a30.408,30.408,0,0,1,.2,5.054s4.521-9.295,5.019-9.986a1.247,1.247,0,0,1,1.68-.448,1.6,1.6,0,0,1,.549,1.134s.884-1.851,2.214-1.265a1.663,1.663,0,0,1,.864,2.038,1.313,1.313,0,0,1,1.637-.4,1.261,1.261,0,0,1,.6,1.8c-.214.46-.87,2.175-.87,2.175a1.358,1.358,0,0,1,1.542-.292,1.121,1.121,0,0,1,.447,1.613c-.23.519-4.8,10.888-5.162,11.709s-1.184,3.49-3.937,4.45l-5.234,12.665a3.107,3.107,0,0,1-3.9,1.743,20.335,20.335,0,0,1-3.359-1.542A3.1,3.1,0,0,1,3246.161,2542.872Z" transform="translate(-3245.871 -2510.809)" fill="#f7c139"/>
    </clipPath>
  </defs>
  <g id="Group_575" data-name="Group 575" transform="translate(-272.579 -467.022)">
    <g id="Group_326" data-name="Group 326" transform="translate(272.579 467.022)">
      <circle id="Ellipse_32" data-name="Ellipse 32" cx="35.483" cy="35.483" r="35.483" fill="#cffcdd"/>
    </g>
    <g id="Group_497" data-name="Group 497" transform="translate(288.401 476.717)">
      <g id="Group_491" data-name="Group 491">
        <rect id="Rectangle_18" data-name="Rectangle 18" width="41.219" height="46.601" rx="20.61" fill="#39b784"/>
      </g>
      <g id="Group_495" data-name="Group 495" transform="translate(2.931 3.314)">
        <rect id="Rectangle_19" data-name="Rectangle 19" width="35.357" height="39.973" rx="17.678" fill="#74dab3"/>
        <g id="Group_494" data-name="Group 494" clip-path="url(#clip-path)">
          <g id="Group_492" data-name="Group 492" transform="translate(-1.209 -0.919)">
            <path id="Path_481" data-name="Path 481" d="M3294.485,2393.18l-17.518,45.185h4.768l16.678-45.031Z" transform="translate(-3276.968 -2393.18)" fill="#cffcdd"/>
          </g>
          <g id="Group_493" data-name="Group 493" transform="translate(8.357 -0.919)">
            <path id="Path_482" data-name="Path 482" d="M3367.609,2393.18l-17.518,45.185h4.768l16.677-45.031Z" transform="translate(-3350.092 -2393.18)" fill="#cffcdd"/>
          </g>
        </g>
      </g>
      <g id="Group_496" data-name="Group 496" transform="translate(32.348 19.135)">
        <circle id="Ellipse_72" data-name="Ellipse 72" cx="2.006" cy="2.006" r="2.006" fill="#137368"/>
      </g>
    </g>
    <g id="Group_502" data-name="Group 502" transform="translate(285.176 490.642)">
      <g id="Group_498" data-name="Group 498">
        <path id="Path_483" data-name="Path 483" d="M3240.025,2503.1s3.408-.67,6.34-6.483,3.678-16.2,9.575-15.233,6.34,7.122,7.405,11.977,5.076,16.975,2.213,17.777-4.487-2.871-6.937-1.675-5.728,10.787-8.483,6.417S3235.916,2506.112,3240.025,2503.1Z" transform="translate(-3239.145 -2481.318)" fill="#fff"/>
      </g>
      <g id="Group_501" data-name="Group 501" transform="translate(0.88 3.858)">
        <path id="Path_484" data-name="Path 484" d="M3246.161,2542.872l5.922-12.73a7.155,7.155,0,0,1-.37-3.642c.419-1.562.735-8.992,1.179-9.993s1.931-1.32,2.252-.073a30.408,30.408,0,0,1,.2,5.054s4.521-9.295,5.019-9.986a1.247,1.247,0,0,1,1.68-.448,1.6,1.6,0,0,1,.549,1.134s.884-1.851,2.214-1.265a1.663,1.663,0,0,1,.864,2.038,1.313,1.313,0,0,1,1.637-.4,1.261,1.261,0,0,1,.6,1.8c-.214.46-.87,2.175-.87,2.175a1.358,1.358,0,0,1,1.542-.292,1.121,1.121,0,0,1,.447,1.613c-.23.519-4.8,10.888-5.162,11.709s-1.184,3.49-3.937,4.45l-5.234,12.665a3.107,3.107,0,0,1-3.9,1.743,20.335,20.335,0,0,1-3.359-1.542A3.1,3.1,0,0,1,3246.161,2542.872Z" transform="translate(-3245.871 -2510.809)" fill="#f7c139"/>
        <g id="Group_500" data-name="Group 500" clip-path="url(#clip-path-2)">
          <g id="Group_499" data-name="Group 499" transform="translate(4.304 4.426)">
            <path id="Path_485" data-name="Path 485" d="M3278.775,2578.746s2.726-1.547,7.61-16.683c0,0,2.5.611,4.549-3.736s6.166-13.683,6.166-13.683l2.6.842s-7.639,19.268-7.956,19.461-7.761,13.837-7.761,13.837l-2.91,2.431Z" transform="translate(-3278.775 -2544.644)" fill="#e09f0e"/>
          </g>
        </g>
      </g>
    </g>
    <g id="Group_504" data-name="Group 504" transform="translate(293.471 484.106)">
      <path id="Path_488" data-name="Path 488" d="M3304.539,2431.528a3.7,3.7,0,0,1-1.857,2.435.3.3,0,0,0,0,.5,3.823,3.823,0,0,1,1.973,2.516c.066.223.3.227.367,0a5,5,0,0,1,1.665-2.72.3.3,0,0,0-.017-.483,3.575,3.575,0,0,1-1.762-2.263C3304.836,2431.292,3304.6,2431.3,3304.539,2431.528Z" transform="translate(-3302.55 -2431.353)" fill="#fff"/>
    </g>
    <g id="Group_505" data-name="Group 505" transform="translate(315.021 507.271)">
      <path id="Path_489" data-name="Path 489" d="M3469.728,2608.652a4.533,4.533,0,0,1-2.277,2.985.371.371,0,0,0,0,.61,4.692,4.692,0,0,1,2.417,3.084c.081.274.369.278.449,0a6.125,6.125,0,0,1,2.041-3.334.372.372,0,0,0-.021-.592,4.383,4.383,0,0,1-2.159-2.774C3470.092,2608.363,3469.8,2608.375,3469.728,2608.652Z" transform="translate(-3467.29 -2608.437)" fill="#fff"/>
    </g>
    <g id="Group_506" data-name="Group 506" transform="translate(311.006 491.842)">
      <path id="Path_490" data-name="Path 490" d="M3439.038,2490.7a4.533,4.533,0,0,1-2.277,2.984.371.371,0,0,0,0,.61,4.69,4.69,0,0,1,2.417,3.084c.081.273.369.278.45,0a6.129,6.129,0,0,1,2.041-3.334.372.372,0,0,0-.021-.593,4.38,4.38,0,0,1-2.159-2.774C3439.4,2490.412,3439.11,2490.423,3439.038,2490.7Z" transform="translate(-3436.601 -2490.486)" fill="#fff"/>
    </g>
  </g>
</svg>
