<svg xmlns="http://www.w3.org/2000/svg" width="21.454" height="19.762" viewBox="0 0 21.454 19.762">
  <path id="Icon" d="M10.866,19.659a.828.828,0,0,1-.35-1.151L13.121,14,9.058,10.807,7.287,15.086a.879.879,0,0,1-.732.53l-5.574.565c-.031,0-.064.006-.094.006A.873.873,0,0,1,0,15.429a.858.858,0,0,1,.79-.931l5.039-.511L7.856,9.1a.813.813,0,0,1,.19-.28L11.655,5.3,9.3,3.494,6.456,6.285A.917.917,0,0,1,5.2,6.3a.819.819,0,0,1-.018-1.2l3.4-3.342a.923.923,0,0,1,1.192-.071L17.1,7.29l2.841-2.67a.919.919,0,0,1,1.256.008.819.819,0,0,1-.01,1.2l-3.4,3.2a.919.919,0,0,1-1.178.058L13.046,6.361,9.989,9.346l4.828,3.787a.821.821,0,0,1,.215,1.063l-2.96,5.128a.9.9,0,0,1-.779.438A.92.92,0,0,1,10.866,19.659Zm2.7-17.587a2.172,2.172,0,0,1,4.339,0,2.172,2.172,0,0,1-4.339,0Z" fill="#ff8c00"/>
</svg>
