<svg xmlns="http://www.w3.org/2000/svg" xmlns:xlink="http://www.w3.org/1999/xlink" width="32.516" height="30.686" viewBox="0 0 32.516 30.686">
  <defs>
    <clipPath id="clip-path">
      <ellipse id="Ellipse_56" data-name="Ellipse 56" cx="11.838" cy="11.838" rx="11.838" ry="11.838" fill="#fff"/>
    </clipPath>
  </defs>
  <g id="Group_576" data-name="Group 576" transform="translate(-315.349 -613.418)">
    <g id="Group_571" data-name="Group 571" transform="translate(315.349 613.418)" opacity="0.34">
      <g id="Group_442" data-name="Group 442">
        <g id="Group_429" data-name="Group 429" transform="translate(4.572 3.28)">
          <ellipse id="Ellipse_55" data-name="Ellipse 55" cx="11.838" cy="11.838" rx="11.838" ry="11.838" fill="#fff"/>
          <g id="Group_428" data-name="Group 428" clip-path="url(#clip-path)">
            <g id="Group_427" data-name="Group 427" transform="translate(-2.266 2.701)" opacity="0.44">
              <path id="Path_445" data-name="Path 445" d="M3587.085,2044.493s9.041,3.891,15.162.562,7.936-12.023,7.936-12.023l4.173,9.447-5.57,11.53s-8.814,3.757-9.525,4.1-13.423-5.3-13.423-5.3Z" transform="translate(-3585.837 -2033.032)" fill="#fff"/>
            </g>
          </g>
        </g>
        <g id="Group_430" data-name="Group 430" transform="translate(4.959)">
          <path id="Path_446" data-name="Path 446" d="M3604.344,2007.273a15,15,0,0,0-1.66-2.549c-.623-.595-2.131.975-2.689.24s.966-1.982,2.636-2.912,2.8-.918,2.324.194-1.453.962-.871,2.007,1.382,2.153,1.382,2.153S3605.381,2007.088,3604.344,2007.273Z" transform="translate(-3599.878 -2001.379)" fill="#fff"/>
        </g>
        <g id="Group_431" data-name="Group 431" transform="translate(13.8 0.327)">
          <path id="Path_447" data-name="Path 447" d="M3648.3,2006.538a9.562,9.562,0,0,0-.078-1.94c-.147-.53-1.487-.161-1.553-.747s1.177-.772,2.4-.736,1.834.41,1.211.866-1.111.053-1.133.816.054,1.632.054,1.632S3648.933,2006.775,3648.3,2006.538Z" transform="translate(-3646.671 -2003.11)" fill="#fff"/>
        </g>
        <g id="Group_432" data-name="Group 432" transform="translate(20.867 0.071)">
          <path id="Path_448" data-name="Path 448" d="M3684.473,2006.348a12.952,12.952,0,0,0,1.063-2.4c.137-.73-1.708-1.082-1.438-1.831s1.888-.234,3.346.536,1.979,1.59.953,1.771-1.379-.6-1.861.315-.906,2.012-.906,2.012S3685.094,2007.011,3684.473,2006.348Z" transform="translate(-3684.07 -2001.753)" fill="#fff"/>
        </g>
        <g id="Group_433" data-name="Group 433" transform="translate(25.254 5.899)">
          <path id="Path_449" data-name="Path 449" d="M3707.287,2035.514a9.622,9.622,0,0,0,1.6-1.114c.37-.411-.667-1.348-.206-1.72s1.29.581,1.919,1.635.643,1.776-.08,1.495-.646-.914-1.3-.52-1.354.928-1.354.928S3707.426,2036.176,3707.287,2035.514Z" transform="translate(-3707.287 -2032.598)" fill="#fff"/>
        </g>
        <g id="Group_434" data-name="Group 434" transform="translate(27.715 11.775)">
          <path id="Path_450" data-name="Path 450" d="M3720.453,2065.752a13.092,13.092,0,0,0,2.653.016c.732-.168.313-2.02,1.117-2.073s.979,1.655.854,3.318-.675,2.477-1.257,1.6,0-1.52-1.043-1.6-2.231-.028-2.231-.028S3720.089,2066.6,3720.453,2065.752Z" transform="translate(-3720.313 -2063.695)" fill="#fff"/>
        </g>
        <g id="Group_435" data-name="Group 435" transform="translate(26.267 19.683)">
          <path id="Path_451" data-name="Path 451" d="M3712.944,2106.051a9.617,9.617,0,0,0,1.83.669c.548.066.718-1.319,1.286-1.156s.267,1.387-.232,2.505-1.08,1.545-1.265.793.375-1.052-.325-1.364-1.535-.572-1.535-.572S3712.484,2106.544,3712.944,2106.051Z" transform="translate(-3712.651 -2105.551)" fill="#fff"/>
        </g>
        <g id="Group_436" data-name="Group 436" transform="translate(21.975 24.343)">
          <path id="Path_452" data-name="Path 452" d="M3690.885,2130.209a13.044,13.044,0,0,0,1.516,2.167c.558.5,1.824-.91,2.33-.286s-.782,1.751-2.206,2.608-2.4.879-2.025-.1,1.235-.879.7-1.77-1.263-1.831-1.263-1.831S3689.989,2130.4,3690.885,2130.209Z" transform="translate(-3689.935 -2130.209)" fill="#fff"/>
        </g>
        <g id="Group_437" data-name="Group 437" transform="translate(15.135 26.165)">
          <path id="Path_453" data-name="Path 453" d="M3655.755,2139.925a8.9,8.9,0,0,0,.1,1.8c.145.49,1.385.127,1.455.67s-1.082.735-2.216.721-1.71-.353-1.139-.786,1.032-.067,1.04-.776-.076-1.516-.076-1.516S3655.167,2139.714,3655.755,2139.925Z" transform="translate(-3653.734 -2139.854)" fill="#fff"/>
        </g>
        <g id="Group_438" data-name="Group 438" transform="translate(6.49 25.066)">
          <path id="Path_454" data-name="Path 454" d="M3612.979,2134.557a14.377,14.377,0,0,0-1.225,2.645c-.167.809,1.877,1.234,1.563,2.061s-2.1.225-3.707-.658-2.169-1.8-1.025-1.986,1.521.69,2.073-.315,1.044-2.218,1.044-2.218S3612.3,2133.809,3612.979,2134.557Z" transform="translate(-3607.983 -2134.037)" fill="#fff"/>
        </g>
        <g id="Group_439" data-name="Group 439" transform="translate(3.554 21.162)">
          <path id="Path_455" data-name="Path 455" d="M3596.267,2114.086a9.733,9.733,0,0,0-1.62,1.128c-.373.416.676,1.362.21,1.739s-1.305-.586-1.942-1.65-.652-1.795.079-1.511.654.923,1.319.524,1.368-.94,1.368-.94S3596.126,2113.417,3596.267,2114.086Z" transform="translate(-3592.441 -2113.376)" fill="#fff"/>
        </g>
        <g id="Group_440" data-name="Group 440" transform="translate(0 13.848)">
          <path id="Path_456" data-name="Path 456" d="M3578.424,2077.874a13.417,13.417,0,0,0-2.72.048c-.747.19-.272,2.079-1.095,2.152s-1.044-1.673-.957-3.381.632-2.556,1.25-1.669.04,1.558,1.108,1.613,2.288-.026,2.288-.026S3578.776,2077,3578.424,2077.874Z" transform="translate(-3573.634 -2074.667)" fill="#fff"/>
        </g>
        <g id="Group_441" data-name="Group 441" transform="translate(2.306 6.342)">
          <path id="Path_457" data-name="Path 457" d="M3590.618,2039.406a13.414,13.414,0,0,0-2.552-.943c-.765-.094-1.008,1.838-1.8,1.608s-.366-1.938.336-3.5,1.516-2.152,1.771-1.1-.529,1.467.447,1.906,2.142.807,2.142.807S3591.264,2038.719,3590.618,2039.406Z" transform="translate(-3585.837 -2034.943)" fill="#fff"/>
        </g>
      </g>
    </g>
    <g id="Group_572" data-name="Group 572" transform="translate(321.837 619.08)" opacity="0.34">
      <g id="Group_445" data-name="Group 445" transform="translate(0 8.219)" opacity="0.5">
        <ellipse id="Ellipse_57" data-name="Ellipse 57" cx="2.013" cy="2.013" rx="2.013" ry="2.013" fill="#fff"/>
      </g>
      <g id="Group_446" data-name="Group 446" transform="translate(10.12 14.077)" opacity="0.5">
        <ellipse id="Ellipse_58" data-name="Ellipse 58" cx="2.013" cy="2.013" rx="2.013" ry="2.013" fill="#fff"/>
      </g>
      <g id="Group_447" data-name="Group 447" transform="translate(9.772)" opacity="0.5">
        <ellipse id="Ellipse_59" data-name="Ellipse 59" cx="1.192" cy="1.192" rx="1.192" ry="1.192" fill="#fff"/>
      </g>
      <g id="Group_448" data-name="Group 448" transform="translate(5.38 14.987)" opacity="0.5">
        <ellipse id="Ellipse_60" data-name="Ellipse 60" cx="1.192" cy="1.192" rx="1.192" ry="1.192" fill="#fff"/>
      </g>
      <g id="Group_449" data-name="Group 449" transform="translate(15.842 9.766)" opacity="0.5">
        <ellipse id="Ellipse_61" data-name="Ellipse 61" cx="2.013" cy="2.013" rx="2.013" ry="2.013" fill="#fff"/>
      </g>
      <g id="Group_450" data-name="Group 450" transform="translate(7.897 5.624)" opacity="0.5">
        <ellipse id="Ellipse_62" data-name="Ellipse 62" cx="3.306" cy="3.306" rx="3.306" ry="3.306" fill="#fff"/>
      </g>
      <g id="Group_451" data-name="Group 451" transform="translate(2.199 0.721)" opacity="0.5">
        <ellipse id="Ellipse_63" data-name="Ellipse 63" cx="3.148" cy="3.148" rx="3.148" ry="3.148" fill="#fff"/>
      </g>
      <g id="Group_452" data-name="Group 452" transform="translate(15.089 3.617)" opacity="0.5">
        <ellipse id="Ellipse_64" data-name="Ellipse 64" cx="1.5" cy="1.5" rx="1.5" ry="1.5" fill="#fff"/>
      </g>
    </g>
  </g>
</svg>
